<?xml version="1.0" encoding="iso-8859-1"?>
<!-- Generator: Adobe Illustrator 16.0.0, SVG Export Plug-In . SVG Version: 6.00 Build 0)  -->
<!DOCTYPE svg PUBLIC "-//W3C//DTD SVG 1.1//EN" "http://www.w3.org/Graphics/SVG/1.1/DTD/svg11.dtd">
<svg version="1.1" id="Capa_1" xmlns="http://www.w3.org/2000/svg" xmlns:xlink="http://www.w3.org/1999/xlink" x="0px" y="0px"
	 width="212.401px" height="212.402px" viewBox="0 0 212.401 212.402" style="enable-background:new 0 0 212.401 212.402;"
	 xml:space="preserve">
<g>
	<g>
		<path d="M211.321,72.914l-17.681-16.405l-8.415-31.015c-0.385-1.417-1.642-2.423-3.108-2.488
			c-1.461-0.083-2.807,0.826-3.315,2.203l-7.71,20.9c-5.171-5.597-11.158-9.933-17.526-12.589
			c-11.463-4.782-23.812-4.129-35.711,1.887C76.616,56.259,15.176,94.015,14.48,94.581c-9.46,7.704-14.602,19.479-14.478,33.155
			c0.121,13.392,5.304,27.051,14.596,38.46c11.834,14.529,28.66,23.205,45.009,23.205c7.023,0,13.587-1.623,19.32-4.73
			c0.018-0.009,0.035-0.019,0.053-0.028c2.017-1.097,67.825-46.951,94.924-66.233c8.759-6.232,13.79-16.417,14.168-28.677
			c0.11-3.593-0.173-7.274-0.815-10.968h21.77c1.388,0,2.635-0.85,3.142-2.142C212.675,75.329,212.34,73.859,211.321,72.914z
			 M19.832,161.933c-8.328-10.226-12.973-22.392-13.081-34.258c-0.104-11.583,4.154-21.477,11.992-27.859
			c0.605-0.493,1.231-0.956,1.87-1.399c0.313-0.195,1.252-0.78,2.74-1.699c4.78-2.615,10.297-3.979,16.227-3.979
			c14.34,0,29.21,7.745,39.776,20.718c8.328,10.225,12.973,22.392,13.08,34.258c0.101,11.229-3.447,20.679-10.985,27.448
			c-7.537,6.769-15.946,7.489-21.844,7.489C45.266,182.651,30.397,174.906,19.832,161.933z M169.99,112.909
			c-20.916,14.883-52.799,37.074-73.63,51.528c1.909-5.102,2.878-10.759,2.824-16.784c-0.121-13.393-5.304-27.052-14.596-38.46
			c-11.495-14.114-27.699-22.7-43.601-23.182c19.685-11.78,50.663-29.791,79.912-44.58c23.169-11.715,42.531,2.581,52.072,18.38
			C183.41,77.096,185.912,101.58,169.99,112.909z M185.676,72.013c-1.579-5.378-3.904-10.688-6.926-15.691
			c-0.857-1.422-1.766-2.794-2.712-4.122l5.439-14.743l5.902,21.751c0.164,0.61,0.498,1.161,0.962,1.59l12.086,11.214
			L185.676,72.013L185.676,72.013z"/>
		<path d="M34.555,122.638c5.756,0,10.438-4.682,10.438-10.438s-4.683-10.438-10.438-10.438c-5.756,0-10.438,4.682-10.438,10.438
			C24.117,117.956,28.8,122.638,34.555,122.638z M34.555,108.512c2.034,0,3.688,1.655,3.688,3.688s-1.655,3.688-3.688,3.688
			c-2.034,0-3.688-1.653-3.688-3.688C30.867,110.167,32.522,108.512,34.555,108.512z"/>
		<path d="M59.427,133.856c5.756,0,10.438-4.683,10.438-10.438s-4.683-10.438-10.438-10.438c-5.756,0-10.438,4.683-10.438,10.438
			S53.671,133.856,59.427,133.856z M59.427,119.729c2.034,0,3.688,1.654,3.688,3.688c0,2.033-1.655,3.688-3.688,3.688
			c-2.034,0-3.688-1.655-3.688-3.688C55.738,121.384,57.393,119.729,59.427,119.729z"/>
		<path d="M44.993,141.143c0-5.755-4.683-10.438-10.438-10.438c-5.756,0-10.438,4.682-10.438,10.438
			c0,5.757,4.682,10.438,10.438,10.438S44.993,146.9,44.993,141.143z M34.555,144.832c-2.034,0-3.688-1.655-3.688-3.688
			c0-2.032,1.654-3.688,3.688-3.688s3.688,1.654,3.688,3.688S36.589,144.832,34.555,144.832z"/>
		<path d="M52.363,154.797c-5.755,0-10.438,4.682-10.438,10.438c0,5.755,4.683,10.438,10.438,10.438
			c5.756,0,10.438-4.682,10.438-10.438C62.802,159.481,58.119,154.797,52.363,154.797z M52.363,168.923
			c-2.033,0-3.688-1.655-3.688-3.688c0-2.033,1.655-3.688,3.688-3.688c2.034,0,3.688,1.655,3.688,3.688
			C56.051,167.268,54.397,168.923,52.363,168.923z"/>
		<path d="M84.504,148.207c0-5.755-4.683-10.438-10.438-10.438c-5.755,0-10.438,4.683-10.438,10.438s4.683,10.438,10.438,10.438
			C79.821,158.644,84.504,153.962,84.504,148.207z M70.377,148.207c0-2.033,1.655-3.688,3.688-3.688
			c2.033,0,3.688,1.654,3.688,3.688s-1.654,3.688-3.688,3.688C72.031,151.894,70.377,150.241,70.377,148.207z"/>
	</g>
</g>
<g>
</g>
<g>
</g>
<g>
</g>
<g>
</g>
<g>
</g>
<g>
</g>
<g>
</g>
<g>
</g>
<g>
</g>
<g>
</g>
<g>
</g>
<g>
</g>
<g>
</g>
<g>
</g>
<g>
</g>
</svg>
