<?xml version="1.0" encoding="iso-8859-1"?>
<!-- Generator: Adobe Illustrator 16.0.0, SVG Export Plug-In . SVG Version: 6.00 Build 0)  -->
<!DOCTYPE svg PUBLIC "-//W3C//DTD SVG 1.1//EN" "http://www.w3.org/Graphics/SVG/1.1/DTD/svg11.dtd">
<svg version="1.1" id="Capa_1" xmlns="http://www.w3.org/2000/svg" xmlns:xlink="http://www.w3.org/1999/xlink" x="0px" y="0px"
	 width="39.2px" height="39.2px" viewBox="0 0 39.2 39.2" style="enable-background:new 0 0 39.2 39.2;" xml:space="preserve">
<g>
	<path d="M36.508,13.346c0,0,0.167-1.334-0.167-3c-0.333-1.667-3.5-4.167-6.333-5.25c-2.833-1.084-6.5-1.334-6.5-1.334
		s0,0-0.333-1.333s-2.333-1.167-3.75-0.833c-1.417,0.333-5.583,1.666-9.167,2.833s-6.167,2.917-8.5,6.25s0.583,5.083,0.583,5.083
		s-1.083,1.75-1.417,2.75c-0.333,1-1,4.167-0.917,7.25c0.083,3.084,2.333,2.834,2.333,2.834c1.333,4.916,3.583,8.083,5.917,8.833
		s4.833,0.417,5.333-0.583s-1.142-3.324-1.75-4.75c-0.729-1.709-0.833-3.75-0.833-3.75s0.417,0.083,0.917,0.083
		s1.5-0.417,2.167-1.333c0.667-0.917,1.25-1.834,1.25-1.834c0.417,0.75,1.583,0.5,3.083-0.083s3.417-1.5,4.583-1.75
		s0.833-2.75,0.75-3.333c-0.083-0.584,1.5-0.584,2.667-0.584s2.417,1.084,3.25,1.25c0.833,0.167,1-1,1.583-1s2,2.667,2.417,5.5
		c0.417,2.834,2.667,2.334,3.667,1.25c1-1.083,1.5-2.833,1.833-5.75C39.508,17.846,36.508,13.346,36.508,13.346z M11.612,36.513
		c-0.5,0.438-3.938-0.312-5.25-2.438s-2.625-5-2.375-6.062c0.061-0.258,2.312-0.188,3.375-0.188s2.062,0.062,1.938,0.438
		s0.562,3.812,1.375,5.062S12.112,36.075,11.612,36.513z M11.842,26.347c-0.583,0.083-3.75-0.667-5.667-0.667s-3.583,1-4,0.917
		c-0.417-0.084-0.75-2.417-0.167-4.834c0.583-2.417,1.167-4,1.167-4s0.417-1,0.833-0.916c0.417,0.083,2.333,1,4.667,2.583
		c2.333,1.583,4.833,3.833,4.75,4.333S12.425,26.263,11.842,26.347z M22.008,21.597c-0.667,0.083-1.5,0.166-3.167,1
		c-1.667,0.833-2.667,1.333-2.917,1.083s-4-4.917-6.833-6.5s-3.917-2.083-5.167-2.583c0,0-1.583-1.417-0.333-3.25
		c1.25-1.834,3.917-3.75,9.583-5.584c5.667-1.833,8.5-2.75,8.75-2.083s0,5.833,0,8.75S22.675,21.513,22.008,21.597z M31.425,17.262
		c-0.667,0.584-1.333,1.5-2.083,1.084c-0.75-0.417-1.917-0.75-2.917-0.75s-2.583,1-2.667,0.5s-0.25-11-0.25-11
		s-0.25-1.167,0.667-1.084c0.917,0.084,4.583,0.334,6.917,1.75c2.333,1.417,4.25,3.75,3.583,5.084
		C34.008,14.179,32.092,16.679,31.425,17.262z M37.425,21.263c-0.167,1.917-0.917,3.25-1.333,3.834c-0.417,0.583-1.5,1.333-1.5-0.5
		c0-1.834-0.833-4.084-1.167-5c-0.333-0.917-0.75-1.167-0.167-1.75c0.583-0.584,2-2.334,2.333-2.334
		C35.592,15.512,37.592,19.346,37.425,21.263z"/>
</g>
<g>
</g>
<g>
</g>
<g>
</g>
<g>
</g>
<g>
</g>
<g>
</g>
<g>
</g>
<g>
</g>
<g>
</g>
<g>
</g>
<g>
</g>
<g>
</g>
<g>
</g>
<g>
</g>
<g>
</g>
</svg>
