<?xml version="1.0" encoding="iso-8859-1"?>
<!-- Generator: Adobe Illustrator 16.0.0, SVG Export Plug-In . SVG Version: 6.00 Build 0)  -->
<!DOCTYPE svg PUBLIC "-//W3C//DTD SVG 1.1//EN" "http://www.w3.org/Graphics/SVG/1.1/DTD/svg11.dtd">
<svg version="1.1" id="Capa_1" xmlns="http://www.w3.org/2000/svg" xmlns:xlink="http://www.w3.org/1999/xlink" x="0px" y="0px"
	 width="178.657px" height="178.657px" viewBox="0 0 178.657 178.657" style="enable-background:new 0 0 178.657 178.657;"
	 xml:space="preserve">
<g>
	<path d="M165.17,152.444c-2.969-2.843-6.051-5.328-8.015-6.843c3.212-9.172,12.973-41.549-0.987-62.059
		c3.845-1.132,7.694-2.407,11.544-3.845c1.32-0.493,2.194-1.753,2.194-3.161V48.288c0-1.057-0.495-2.053-1.338-2.691
		c-0.843-0.639-1.936-0.844-2.953-0.557c-6.352,1.791-12.813,3.267-19.294,4.481c-2.011-2.965-9.261-13.395-18.719-23.984
		C112.581,8.72,99.707,0.134,89.329,0C78.951,0.134,66.077,8.721,51.055,25.537c-9.458,10.588-16.708,21.018-18.719,23.984
		c-6.48-1.215-12.941-2.69-19.294-4.481c-1.017-0.286-2.11-0.082-2.953,0.557c-0.843,0.638-1.338,1.634-1.338,2.691v28.248
		c0,1.408,0.874,2.668,2.194,3.161c3.85,1.438,7.7,2.713,11.544,3.845c-13.96,20.509-4.199,52.886-0.987,62.058
		c-1.964,1.516-5.045,4.002-8.015,6.844c-7.535,7.214-10.151,12.619-8.234,17.012c0.711,1.628,2.562,2.426,4.234,1.826
		c9.927-3.567,23.379,0.4,23.51,0.439c0.073,0.021,0.147,0.041,0.222,0.059c1.221,0.281,30.192,6.878,55.003,6.878h2.211
		c24.811,0,53.78-6.597,55.003-6.878c0.075-0.018,0.148-0.037,0.222-0.059c0.131-0.041,13.583-4.008,23.51-0.439
		c1.674,0.6,3.523-0.199,4.235-1.826C175.321,165.062,172.705,159.658,165.17,152.444z M89.329,6.751
		c15.844,0.298,39.379,29.311,49.677,44.032c-17.225,2.712-34.345,3.668-49.677,3.709c-15.332-0.041-32.452-0.997-49.677-3.709
		C49.95,36.061,73.485,7.049,89.329,6.751z M160.202,163.055c-8.133-0.142-15.281,1.85-16.375,2.17
		c-1.888,0.426-30.061,6.684-53.393,6.684h-2.211c-23.331,0-51.505-6.258-53.393-6.684c-1.095-0.32-8.242-2.311-16.375-2.17
		c-1.879,0.031-8.214,1.898-0.345-5.691c4.432-4.275,9.345-7.792,9.394-7.827c1.259-0.904,1.742-2.548,1.17-3.988
		c-0.156-0.392-15.376-39.422,0.483-59.7c0.104-0.133,0.192-0.272,0.273-0.415c17.301,4.336,34.43,5.618,50.865,5.877
		c11.434,0.18,36.934-1.621,43.612-2.591c1.845-0.269,3.171-1.903,2.948-3.753c-0.222-1.851-1.908-3.201-3.753-2.948
		c-7.824,1.073-34.021,2.389-34.144,2.393C65.515,85.157,40.451,83.087,15.5,74.176V52.697c25.047,6.495,51.34,8.483,73.828,8.542
		c22.488-0.059,48.781-2.047,73.828-8.542v21.479c-5.991,2.821-18.541,5.413-19.044,5.529c-1.816,0.417-2.95,2.229-2.532,4.045
		c0.417,1.816,2.229,2.955,4.045,2.533c0.033-0.007,2.792-0.646,3.602-0.849c6.627,8.982,7.738,17.894,7.454,27.582
		c-0.489,16.617-6.6,32.285-6.698,32.532c-0.572,1.44-0.089,3.084,1.17,3.988c0.049,0.035,4.962,3.553,9.394,7.827
		C168.416,164.953,162.081,163.085,160.202,163.055z"/>
</g>
<g>
</g>
<g>
</g>
<g>
</g>
<g>
</g>
<g>
</g>
<g>
</g>
<g>
</g>
<g>
</g>
<g>
</g>
<g>
</g>
<g>
</g>
<g>
</g>
<g>
</g>
<g>
</g>
<g>
</g>
</svg>
