<?xml version="1.0" encoding="iso-8859-1"?>
<!-- Generator: Adobe Illustrator 16.0.0, SVG Export Plug-In . SVG Version: 6.00 Build 0)  -->
<!DOCTYPE svg PUBLIC "-//W3C//DTD SVG 1.1//EN" "http://www.w3.org/Graphics/SVG/1.1/DTD/svg11.dtd">
<svg version="1.1" id="Capa_1" xmlns="http://www.w3.org/2000/svg" xmlns:xlink="http://www.w3.org/1999/xlink" x="0px" y="0px"
	 width="959.502px" height="959.502px" viewBox="0 0 959.502 959.502" style="enable-background:new 0 0 959.502 959.502;"
	 xml:space="preserve">
<g>
	<path d="M85.47,86.143c26.286-1.952,52.712-2.052,78.911,0.934c2.983,0.461,5.955,0.981,8.92,1.53
		c-23.59,43.888-27.823,83.558-26.458,111.45c0.386,7.892,1.234,15.235,2.348,21.972c-26.06,45.689-45.353,95.094-57.511,147.43
		c-16.393,70.561-19.018,143.249-7.803,216.041c0.937,6.084,2.649,15.953,3.817,22.002c13.964,72.314,40.923,139.869,80.129,200.781
		c37.928,58.93,85.591,109.086,141.666,149.075c1.966,1.402,4.291,2.145,6.725,2.145c3.841,0,7.428-1.859,9.594-4.976
		c40.333-57.994,68.702-122.982,84.316-193.164c16.166-72.652,17.797-147.338,4.845-221.98
		c-12.951-74.644-39.646-144.414-79.345-207.374c-29.907-47.434-66.058-89.281-107.806-124.861c-0.494-3.376-0.878-7.055-1.071-11
		c-1.306-26.683,6.307-53.319,22.639-79.395c5.677,3.481,11.22,7.188,16.609,11.133c13.96,11.321,26.635,24.06,38.167,37.826
		c0.816,64.527,24.127,108.333,44.373,134.286c11.11,14.242,22.554,24.803,31.955,32.206
		c11.757,112.353,61.081,223.609,147.36,313.22c4.055,4.212,10.758,10.916,14.971,14.972
		c102.826,99,234.148,149.354,362.926,150.114c5.848,0.035,10.67-4.789,10.637-10.636
		c-0.779-131.955-53.627-266.581-157.529-370.482c-91.076-91.076-205.758-142.921-321.557-154.859
		c-6.639-3.92-52.811-33.992-53.161-111.487c0.381-1.046,0.73-2.105,1.027-3.183c2.718-9.878,2.196-24.06-4.269-32.634
		c-17.567-23.298-36.417-44.999-59.582-62.906c-12.156-9.397-24.361-18.32-37.777-25.846c-13.119-7.359-27.075-13.3-41.092-18.694
		C216.79,9.91,189.812,5.219,162.596,2.158c-25.594-2.879-51.474-2.624-77.126-0.719C73.932,2.296,63.907,5.459,55.524,13.843
		c-7.907,7.906-12.405,18.759-12.405,29.947C43.119,65.583,62.419,87.854,85.47,86.143z M791.037,631.894
		c29.42,0,53.271,23.85,53.271,53.271c0,29.421-23.85,53.271-53.271,53.271c-29.42,0-53.27-23.85-53.27-53.271
		C737.768,655.745,761.617,631.894,791.037,631.894z M667.902,480.256c45.162,0,81.773,36.61,81.773,81.773
		c0,45.162-36.611,81.774-81.773,81.774s-81.773-36.611-81.773-81.774S622.74,480.256,667.902,480.256z M545.816,386.672
		c29.42,0,53.271,23.85,53.271,53.271s-23.852,53.271-53.271,53.271s-53.271-23.851-53.271-53.271S516.396,386.672,545.816,386.672z
		 M498.277,354.889c0,20.72-16.797,37.517-37.516,37.517c-20.721,0-37.518-16.797-37.518-37.517s16.797-37.517,37.518-37.517
		C481.48,317.372,498.277,334.167,498.277,354.889z M178.419,285.087c0.151,1.069,0.417,2.192,0.596,3.293
		c0.214,1.111,0.595,2.261,0.845,3.379c0.172,0.566,0.382,1.135,0.569,1.699c0.221,0.565,0.314,1.123,0.582,1.683
		c0.507,1.117,0.846,2.227,1.446,3.303c0.958,2.18,2.308,4.216,3.601,6.148c1.331,1.939,2.932,3.637,4.471,5.297
		c0.442,0.372,0.838,0.777,1.242,1.175l0.296,0.295c0.084,0.053,0.169,0.105,0.245,0.166c0.155,0.117,0.304,0.239,0.447,0.366
		s0.281,0.259,0.414,0.398c0.044,0.041,0.042,0.056,0.124,0.118l0.28,0.211l0.557,0.425l1.715,1.314l0.087,0.054l0.182,0.114
		l0.362,0.231l0.716,0.474c0.245,0.145,0.456,0.358,0.711,0.481l0.745,0.412l0.737,0.433c0.235,0.169,0.481,0.314,0.744,0.419
		c0.512,0.244,1.026,0.483,1.524,0.78c0.509,0.267,1.054,0.424,1.574,0.679l0.787,0.375l0.817,0.268
		c0.545,0.182,1.081,0.459,1.64,0.609c0.56,0.139,1.118,0.33,1.684,0.507c2.258,0.571,4.635,1.157,7.013,1.324
		c1.216,0.2,2.377,0.145,3.602,0.246c1.193,0.014,2.375-0.04,3.576-0.06c1.137-0.144,2.348-0.175,3.467-0.349
		c1.097-0.205,2.243-0.336,3.301-0.554c1.047-0.234,2.034-0.51,3.04-0.712c0.94-0.27,1.804-0.518,2.584-0.742
		c0.42-0.126,0.819-0.245,1.193-0.357c0.384-0.142,0.749-0.305,1.086-0.441c0.668-0.285,1.261-0.508,1.744-0.688
		c0.966-0.358,1.511-0.526,1.511-0.526s-0.032,0.57-0.147,1.594c-0.059,0.511-0.133,1.141-0.249,1.858
		c-0.061,0.361-0.099,0.751-0.189,1.162c-0.13,0.414-0.269,0.854-0.416,1.32c-0.297,0.949-0.701,2.009-1.191,3.154
		c-0.497,1.079-1.136,2.188-1.826,3.433c-0.327,0.647-0.777,1.187-1.209,1.802c-0.438,0.609-0.911,1.223-1.408,1.858
		c-0.478,0.667-1.071,1.205-1.653,1.824c-0.586,0.612-1.213,1.215-1.863,1.841c-0.658,0.609-1.39,1.135-2.128,1.719
		c-0.747,0.561-1.504,1.185-2.34,1.678c-1.667,0.99-3.427,2.109-5.387,2.876c-3.86,1.789-8.321,2.842-13.063,3.297
		c-4.755,0.426-9.782-0.091-14.732-1.367c-2.44-0.744-4.92-1.521-7.234-2.699c-1.174-0.552-2.367-1.083-3.451-1.798l-1.657-1.024
		l-0.826-0.519l-0.412-0.261l-0.206-0.131l-0.103-0.065l-0.051-0.033c-0.289-0.213,0.574,0.43-0.661-0.485l-2.193-1.753
		l-0.547-0.439l-0.272-0.221l-0.388-0.36l-1.606-1.541l-1.568-1.569l-0.761-0.8l-0.612-0.76c-0.799-1.015-1.603-2.018-2.356-3.049
		c-0.735-1.043-1.365-2.156-2.026-3.228l-0.931-1.638l-0.795-1.696c-0.505-1.136-1.028-2.249-1.431-3.399
		c-0.399-1.152-0.739-2.314-1.082-3.452c-1.173-4.62-1.688-9.178-1.305-13.419c0.063-2.107,0.523-4.141,0.893-6.047
		c0.188-0.954,0.514-1.878,0.793-2.771c0.305-0.892,0.549-1.76,0.903-2.585c0.374-0.823,0.727-1.618,1.108-2.376
		c0.39-0.756,0.694-1.498,1.164-2.172c0.434-0.682,0.85-1.336,1.278-1.953c0.437-0.614,0.791-1.221,1.292-1.747
		c0.945-1.068,1.772-2.045,2.625-2.875c0.263-0.235,0.509-0.441,0.761-0.658c0.613-0.527,1.208-1.019,1.766-1.435
		c0.386-0.29,0.751-0.564,1.094-0.823c0.364-0.24,0.741-0.438,1.068-0.63c0.658-0.384,1.235-0.679,1.703-0.909
		c0.933-0.46,1.448-0.661,1.448-0.661s0.004,0.562,0.011,1.615c0.035,1.044-0.112,2.419,0.024,4.192
		c0.039,0.838,0.083,1.765,0.13,2.774c0.082,0.543,0.141,1.089,0.199,1.64C178.306,284.104,178.355,284.59,178.419,285.087z
		 M250.392,819.827l-0.063-0.05l-0.125-0.097l-0.25-0.195l-0.5-0.391l-0.999-0.784l-1.986-1.579
		c-1.358-1.009-2.538-2.23-3.735-3.423l-1.783-1.794l-0.872-0.91l-0.798-0.977c-1.053-1.311-2.107-2.611-3.105-3.939
		c-0.976-1.345-1.817-2.779-2.69-4.171c-0.423-0.705-0.852-1.401-1.256-2.108c-0.359-0.733-0.716-1.465-1.073-2.193
		c-0.672-1.477-1.408-2.902-1.961-4.395c-0.543-1.496-1.032-2.997-1.523-4.472c-1.687-5.995-2.589-11.933-2.326-17.519
		c0.027-1.392,0.029-2.748,0.247-4.09c0.167-1.339,0.332-2.644,0.53-3.914c0.076-0.637,0.224-1.262,0.377-1.879
		c0.154-0.614,0.307-1.223,0.458-1.825c0.326-1.197,0.582-2.365,0.971-3.482c0.418-1.113,0.822-2.192,1.247-3.228
		c0.439-1.033,0.77-2.051,1.319-2.981c0.5-0.94,0.987-1.847,1.479-2.71c0.506-0.858,0.904-1.71,1.5-2.456
		c1.11-1.517,2.097-2.912,3.092-4.131c1.089-1.223,2.127-2.298,3.072-3.206c0.465-0.449,0.905-0.873,1.32-1.273
		c0.432-0.355,0.868-0.643,1.257-0.936c0.779-0.577,1.468-1.051,2.028-1.434c1.122-0.766,1.752-1.153,1.752-1.153
		s-0.079,0.736-0.287,2.078c-0.105,0.671-0.237,1.496-0.423,2.446c-0.084,0.478-0.196,0.994-0.276,1.537
		c-0.047,0.528-0.098,1.088-0.151,1.682c-0.1,1.118-0.211,2.356-0.331,3.704c0.002,1.402-0.084,2.844-0.121,4.356
		c-0.009,1.521,0.146,3.145,0.176,4.764c0.081,1.633,0.399,3.348,0.54,5.046c0.132,0.857,0.339,1.73,0.497,2.6
		c0.081,0.432,0.164,0.868,0.246,1.308c0.07,0.437,0.145,0.874,0.291,1.313c0.537,1.753,0.851,3.524,1.561,5.271
		c1.08,3.531,2.823,6.955,4.64,10.267c0.505,0.811,1.021,1.612,1.49,2.435c0.482,0.817,1.128,1.547,1.661,2.333l0.805,1.178
		l0.943,1.087c0.638,0.716,1.173,1.506,1.839,2.194c0.698,0.664,1.348,1.363,2.003,2.06l0.491,0.521l0.557,0.462l1.079,0.954
		l1.063,0.97c0.339,0.339,0.777,0.573,1.147,0.88l1.152,0.877l0.571,0.445l0.285,0.225l0.142,0.111l0.037,0.029l2.828,1.814
		l0.837,0.539l0.417,0.271c0.128,0.082,0.188,0.093,0.284,0.144c0.351,0.166,0.697,0.339,1.04,0.519
		c0.343,0.179,0.683,0.366,1.021,0.559c0.17,0.095,0.335,0.2,0.501,0.305l0.65,0.284c0.875,0.384,1.753,0.759,2.614,1.187
		c0.874,0.392,1.794,0.64,2.685,0.986l1.34,0.523l1.379,0.362c0.921,0.225,1.824,0.597,2.755,0.772
		c0.933,0.158,1.861,0.375,2.793,0.579c3.725,0.591,7.533,1.077,11.217,0.905c1.882,0.083,3.655-0.219,5.484-0.304
		c0.923-0.028,1.756-0.279,2.646-0.375c0.873-0.141,1.761-0.243,2.614-0.405c0.835-0.198,1.659-0.407,2.494-0.584
		c0.821-0.2,1.682-0.326,2.438-0.603c1.534-0.515,3.116-0.911,4.544-1.433c1.415-0.54,2.74-1.108,4.064-1.575
		c1.24-0.559,2.354-1.148,3.449-1.63c0.543-0.254,1.058-0.494,1.542-0.72c0.471-0.246,0.898-0.495,1.31-0.722
		c0.811-0.464,1.533-0.853,2.127-1.172c1.222-0.638,1.873-0.978,1.873-0.978s-0.137,0.707-0.482,2.031
		c-0.175,0.661-0.397,1.483-0.701,2.443c-0.154,0.479-0.299,1.016-0.501,1.556c-0.233,0.521-0.481,1.074-0.744,1.659
		c-0.527,1.186-1.162,2.49-1.912,3.902c-0.811,1.351-1.793,2.749-2.845,4.31c-0.501,0.814-1.171,1.474-1.808,2.242
		c-0.646,0.756-1.336,1.519-2.053,2.31c-0.691,0.833-1.54,1.483-2.363,2.249c-0.833,0.751-1.714,1.492-2.62,2.265
		c-0.92,0.745-1.937,1.376-2.952,2.09c-0.512,0.351-1.032,0.701-1.565,1.046c-0.529,0.354-1.069,0.704-1.642,0.99
		c-2.277,1.177-4.651,2.541-7.28,3.43c-5.174,2.131-11.074,3.279-17.29,3.706c-1.554,0.035-3.133,0.082-4.726,0.069
		c-0.8,0.027-1.589-0.087-2.39-0.143c-0.799-0.071-1.604-0.137-2.409-0.229c-0.807-0.09-1.616-0.18-2.428-0.271
		c-0.802-0.143-1.603-0.312-2.41-0.473c-1.601-0.367-3.239-0.665-4.834-1.134c-1.586-0.498-3.165-1.055-4.754-1.604l-1.195-0.426
		l-1.271-0.576l-2.531-1.211l-2.518-1.255c-0.197-0.102-0.444-0.222-0.601-0.311l-0.424-0.26l-0.846-0.524l-3.386-2.103
		C249.803,819.438,250.694,820.03,250.392,819.827z M189.508,579.736c0.249,5.555,1.097,11.429,2.543,17.366
		c0.15,0.746,0.41,1.481,0.598,2.227c0.216,0.74,0.377,1.494,0.636,2.232c0.493,1.48,0.933,2.978,1.508,4.451
		c0.512,1.49,1.166,2.945,1.749,4.427c0.312,0.734,0.673,1.453,1.004,2.184l0.497,1.096l0.55,1.077
		c2.876,5.775,6.541,11.283,10.818,16.331c2.122,2.543,4.504,4.876,6.926,7.166l1.884,1.65c0.319,0.295,0.617,0.526,0.903,0.755
		l0.868,0.705l0.86,0.716c0.118,0.107,0.33,0.262,0.541,0.415l0.617,0.452l2.235,1.647c0.006,0.004,0.007,0.005-0.013-0.01
		l0.065,0.044l0.131,0.088l0.261,0.175l0.522,0.352l1.042,0.706c0.683,0.49,1.406,0.914,2.124,1.345
		c0.726,0.416,1.413,0.903,2.15,1.295l2.19,1.218c2.97,1.515,5.97,2.97,9.078,4.121c6.194,2.336,12.619,3.924,19.028,4.697
		c0.8,0.12,1.601,0.192,2.4,0.257c0.799,0.064,1.599,0.162,2.396,0.208c1.592,0.048,3.184,0.183,4.76,0.157
		c1.582,0.039,3.143-0.042,4.702-0.078c0.782-0.006,1.546-0.109,2.317-0.156c0.767-0.068,1.546-0.075,2.299-0.186
		c6.082-0.639,11.9-1.823,17.216-3.462c5.32-1.628,10.15-3.654,14.385-5.755c1.045-0.542,2.097-1.037,3.064-1.583
		c0.958-0.56,1.908-1.082,2.833-1.586c0.904-0.525,1.747-1.069,2.576-1.576c0.415-0.255,0.821-0.504,1.217-0.747
		c0.387-0.257,0.764-0.508,1.131-0.752c0.742-0.494,1.444-0.963,2.104-1.403c0.646-0.458,1.252-0.888,1.815-1.286
		c1.132-0.805,2.133-1.511,2.907-2.139c1.574-1.215,2.445-1.84,2.445-1.84s-0.347,1.015-1.054,2.872
		c-0.185,0.462-0.364,0.984-0.61,1.548c-0.263,0.561-0.549,1.174-0.859,1.835c-0.318,0.66-0.65,1.396-1.04,2.149
		c-0.412,0.734-0.85,1.514-1.312,2.337c-1.883,3.294-4.482,7.186-8.079,11.226c-3.578,4.052-8.14,8.271-13.756,12.163
		c-5.604,3.906-12.32,7.334-19.888,9.935c-3.791,1.259-7.788,2.367-11.967,3.078c-4.169,0.792-8.514,1.219-12.957,1.34
		c-8.887,0.263-18.196-0.913-27.26-3.626c-1.127-0.359-2.257-0.719-3.388-1.079c-1.123-0.385-2.227-0.829-3.344-1.248l-1.671-0.644
		l-1.643-0.717c-1.087-0.496-2.194-0.961-3.263-1.501c-2.135-1.087-4.292-2.154-6.337-3.418c-1.036-0.608-2.074-1.218-3.065-1.895
		l-1.504-0.993l-0.751-0.498l-0.375-0.249l-0.188-0.125l-0.094-0.062l-0.401-0.285l-2.45-1.835l-0.612-0.46
		c-0.2-0.149-0.399-0.297-0.668-0.522l-1.5-1.23l-1.492-1.239c-0.505-0.414-0.991-0.834-1.41-1.24l-2.624-2.465
		c-0.869-0.825-1.678-1.712-2.514-2.565c-0.839-0.853-1.637-1.741-2.402-2.658c-0.77-0.911-1.561-1.801-2.302-2.729
		c-0.722-0.942-1.443-1.884-2.163-2.822c-5.617-7.617-9.856-15.992-12.612-24.447c-1.388-4.224-2.451-8.461-3.11-12.655
		c-0.737-4.176-1.042-8.314-1.136-12.309c-0.103-8.006,0.865-15.488,2.656-22.082c0.934-3.292,1.907-6.389,3.096-9.229
		c0.614-1.415,1.154-2.796,1.817-4.091c0.648-1.297,1.201-2.571,1.916-3.735c2.599-4.747,5.391-8.505,7.862-11.386
		c0.621-0.712,1.209-1.387,1.762-2.021c0.575-0.615,1.152-1.164,1.665-1.684c0.518-0.512,0.997-0.984,1.436-1.419
		c0.449-0.423,0.891-0.782,1.266-1.114c1.527-1.31,2.358-1.964,2.358-1.964s-0.312,1.016-0.898,2.917
		c-0.317,0.924-0.639,2.098-1.023,3.447c-0.189,0.672-0.392,1.393-0.608,2.163c-0.191,0.771-0.395,1.59-0.609,2.456
		c-0.225,0.853-0.423,1.764-0.617,2.716c-0.196,0.951-0.423,1.928-0.612,2.957c-0.16,1.041-0.335,2.111-0.537,3.201
		c-0.187,1.096-0.296,2.253-0.453,3.42C189.522,568.953,189.244,574.183,189.508,579.736z M263.997,452.31
		c1.229-0.568,2.357-1.089,3.376-1.56c0.54-0.25,1.051-0.486,1.532-0.709c0.483-0.259,0.933-0.538,1.354-0.778
		c0.833-0.495,1.565-0.898,2.162-1.222c1.193-0.648,1.86-0.972,1.86-0.972s-0.153,0.725-0.496,2.039
		c-0.172,0.657-0.386,1.465-0.667,2.393c-0.144,0.465-0.268,0.972-0.458,1.499c-0.236,0.524-0.488,1.082-0.753,1.672
		c-0.537,1.194-1.2,2.535-1.984,3.972c-0.812,1.348-1.793,2.747-2.848,4.303c-0.502,0.812-1.169,1.474-1.807,2.239
		c-0.647,0.754-1.335,1.518-2.053,2.305c-0.691,0.831-1.538,1.484-2.363,2.246c-0.833,0.749-1.712,1.493-2.619,2.263
		c-0.92,0.742-1.934,1.378-2.951,2.088c-0.517,0.346-1.038,0.694-1.564,1.047c-0.529,0.353-1.069,0.703-1.642,0.988
		c-1.129,0.614-2.304,1.21-3.507,1.817c-1.19,0.658-2.467,1.117-3.768,1.611c-5.17,2.129-11.066,3.28-17.278,3.712
		c-1.553,0.034-3.131,0.08-4.724,0.073c-1.59-0.019-3.182-0.231-4.798-0.366c-0.806-0.09-1.615-0.181-2.426-0.271
		c-0.802-0.143-1.602-0.312-2.408-0.473c-1.604-0.354-3.239-0.662-4.833-1.128c-6.41-1.844-12.559-4.881-18.167-8.667l-0.807-0.604
		l-0.195-0.155l-0.39-0.311l-0.779-0.621l-1.559-1.24l-0.779-0.62l-0.388-0.312c-0.137-0.117-0.333-0.309-0.495-0.46l-2.03-1.947
		l-1.992-1.976l-0.972-1.003l-0.803-0.981c-1.052-1.312-2.108-2.611-3.111-3.937c-0.979-1.344-1.812-2.786-2.696-4.169
		c-0.423-0.706-0.852-1.403-1.256-2.11c-0.359-0.733-0.716-1.465-1.073-2.193c-0.357-0.728-0.69-1.463-1.026-2.192
		c-0.323-0.735-0.696-1.439-0.94-2.202c-0.549-1.495-1.037-2.998-1.527-4.473c-1.691-5.996-2.597-11.939-2.335-17.527
		c-0.049-2.774,0.436-5.469,0.777-8.01c0.076-0.636,0.225-1.262,0.379-1.88c0.145-0.618,0.3-1.228,0.458-1.826
		c0.33-1.197,0.582-2.367,0.973-3.484c0.422-1.112,0.823-2.192,1.25-3.229c0.443-1.033,0.77-2.051,1.321-2.983
		c0.503-0.94,0.988-1.848,1.482-2.711c0.51-0.856,0.905-1.711,1.502-2.456c1.115-1.516,2.1-2.912,3.1-4.13
		c1.076-1.182,2.091-2.219,3.029-3.115c0.462-0.443,0.9-0.863,1.312-1.259c0.44-0.373,0.897-0.689,1.295-0.996
		c0.801-0.608,1.499-1.097,2.064-1.482c1.13-0.772,1.75-1.14,1.75-1.14s-0.101,0.729-0.29,2.093c-0.1,0.667-0.222,1.479-0.386,2.397
		c-0.075,0.463-0.166,0.95-0.238,1.477c-0.05,0.531-0.103,1.097-0.159,1.693c-0.084,1.193-0.265,2.441-0.374,3.796
		c0.006,1.404-0.082,2.844-0.114,4.357c-0.009,1.52,0.149,3.143,0.182,4.761c-0.005,0.805,0.167,1.658,0.255,2.498
		c0.114,0.845,0.195,1.691,0.29,2.545c0.134,0.858,0.337,1.729,0.499,2.599c0.209,0.87,0.253,1.739,0.538,2.617
		c0.536,1.751,0.85,3.522,1.562,5.267c1.079,3.526,2.82,6.947,4.631,10.257c0.506,0.809,1.023,1.61,1.486,2.435
		c0.48,0.817,1.135,1.542,1.656,2.333l0.806,1.177l0.943,1.085c0.627,0.722,1.17,1.505,1.833,2.195
		c0.693,0.667,1.341,1.367,1.998,2.062l0.486,0.517c0.155,0.121,0.31,0.241,0.456,0.369c0.296,0.253,0.586,0.51,0.87,0.773
		c0.285,0.263,0.563,0.53,0.838,0.805c0.08,0.074,0.111,0.126,0.231,0.219l0.396,0.302l0.789,0.607l1.58,1.215l0.79,0.608
		l0.345,0.265c3.176,2.087,6.438,3.998,9.914,5.455c0.874,0.396,1.798,0.632,2.686,0.992l1.341,0.521l1.38,0.361
		c0.919,0.237,1.825,0.599,2.756,0.778c0.933,0.164,1.862,0.38,2.795,0.583c3.729,0.595,7.54,1.083,11.229,0.91
		c1.883,0.081,3.658-0.222,5.489-0.307c0.463-0.01,0.9-0.087,1.334-0.169c0.442-0.07,0.88-0.14,1.314-0.209
		c0.872-0.144,1.763-0.243,2.615-0.408c1.646-0.439,3.369-0.718,4.933-1.191c1.534-0.519,3.114-0.918,4.543-1.439
		C261.348,453.347,262.675,452.779,263.997,452.31z"/>
</g>
<g>
</g>
<g>
</g>
<g>
</g>
<g>
</g>
<g>
</g>
<g>
</g>
<g>
</g>
<g>
</g>
<g>
</g>
<g>
</g>
<g>
</g>
<g>
</g>
<g>
</g>
<g>
</g>
<g>
</g>
</svg>
