<?xml version="1.0" encoding="iso-8859-1"?>
<!-- Generator: Adobe Illustrator 17.1.0, SVG Export Plug-In . SVG Version: 6.00 Build 0)  -->
<!DOCTYPE svg PUBLIC "-//W3C//DTD SVG 1.1//EN" "http://www.w3.org/Graphics/SVG/1.1/DTD/svg11.dtd">
<svg version="1.1" id="Capa_1" xmlns="http://www.w3.org/2000/svg" xmlns:xlink="http://www.w3.org/1999/xlink" x="0px" y="0px"
	 viewBox="0 0 294.881 294.881" style="enable-background:new 0 0 294.881 294.881;" xml:space="preserve">
<path d="M176.625,124.771h-14.336l5.089-18.326c1.182-4.257-1.311-8.667-5.568-9.849c-4.258-1.181-8.667,1.311-9.849,5.567
	l-3.051,10.986l-5.994-21.577c-1.182-4.257-5.592-6.753-9.849-5.566c-4.257,1.183-6.75,5.592-5.567,9.85l8.032,28.915h-17.277
	c-7.847,0-15.764,3.729-20.66,9.729c-4.12,5.049-5.709,11.148-4.474,17.175l9.08,44.256c4.782,23.316,19.819,37.801,39.243,37.801
	h11.99c19.426,0,34.462-14.484,39.243-37.801l9.08-44.256c1.236-6.024-0.352-12.124-4.471-17.174
	C192.39,128.499,184.473,124.771,176.625,124.771z M186.083,148.46l-9.08,44.257c-1.203,5.868-6.458,25.015-23.569,25.015h-11.99
	c-17.108,0-22.365-19.147-23.569-25.016l-9.079-44.254c-0.259-1.263,0.144-2.557,1.197-3.848c1.876-2.299,5.196-3.844,8.263-3.844
	h27.669c0.086,0.002,0.172,0.002,0.258,0h5.458c0.086,0.002,0.171,0.002,0.257,0h24.727c3.066,0,6.387,1.545,8.262,3.844
	C185.939,145.904,186.342,147.198,186.083,148.46z M218.383,42.472h-0.479V8c0-4.418-3.582-8-8-8H84.979c-4.418,0-8,3.582-8,8
	v34.472h-0.481c-21.421,0-38.848,17.427-38.848,38.847v136.764c0,42.347,34.452,76.799,76.799,76.799h65.982
	c42.347,0,76.799-34.452,76.799-76.799V81.318C257.231,59.898,239.804,42.472,218.383,42.472z M92.979,16h108.924v26.472H92.979V16z
	 M241.231,218.082c0,33.524-27.274,60.799-60.799,60.799h-65.982c-33.525,0-60.799-27.274-60.799-60.799V81.318
	c0-12.598,10.25-22.847,22.848-22.847h141.885c12.599,0,22.848,10.249,22.848,22.847V218.082z"/>
<g>
</g>
<g>
</g>
<g>
</g>
<g>
</g>
<g>
</g>
<g>
</g>
<g>
</g>
<g>
</g>
<g>
</g>
<g>
</g>
<g>
</g>
<g>
</g>
<g>
</g>
<g>
</g>
<g>
</g>
</svg>
