<?xml version="1.0" encoding="iso-8859-1"?>
<!-- Generator: Adobe Illustrator 17.1.0, SVG Export Plug-In . SVG Version: 6.00 Build 0)  -->
<!DOCTYPE svg PUBLIC "-//W3C//DTD SVG 1.1//EN" "http://www.w3.org/Graphics/SVG/1.1/DTD/svg11.dtd">
<svg version="1.1" id="Capa_1" xmlns="http://www.w3.org/2000/svg" xmlns:xlink="http://www.w3.org/1999/xlink" x="0px" y="0px"
	 viewBox="0 0 275.09 275.09" style="enable-background:new 0 0 275.09 275.09;" xml:space="preserve">
<path d="M269.59,13.69H5.677c-3.037,0-5.5,2.462-5.5,5.5v36.848V85.98C0.065,86.416,0,86.871,0,87.342
	c0,0.471,0.065,0.925,0.177,1.361v41.017C0.065,130.156,0,130.61,0,131.081c0,0.471,0.065,0.925,0.177,1.361v35.486
	c0,51.54,41.931,93.471,93.471,93.471h43.985h43.985c51.54,0,93.472-41.931,93.472-93.471V56.038V19.19
	C275.09,16.153,272.627,13.69,269.59,13.69z M176.278,250.399h-38.646H98.987c-2.75-47.169-40.642-85.053-87.811-87.804v-26.014
	h64.509c3.037,0,5.5-2.462,5.5-5.5V87.342c0-3.038-2.463-5.5-5.5-5.5H11.177V61.538H264.09v20.304h-65.324
	c-3.037,0-5.5,2.462-5.5,5.5v43.739c0,3.038,2.463,5.5,5.5,5.5h65.324v26.014C216.92,165.346,179.028,203.23,176.278,250.399z
	 M11.177,92.842h59.009v32.739H11.177V92.842z M264.09,125.581h-59.824V92.842h59.824V125.581z M264.09,24.69v25.848H11.177V24.69
	H264.09z M11.397,173.649c40.921,2.82,73.709,35.608,76.529,76.529C47.006,247.358,14.218,214.57,11.397,173.649z M187.339,250.179
	c2.82-40.921,35.609-73.709,76.53-76.529C261.049,214.57,228.26,247.358,187.339,250.179z"/>
<g>
</g>
<g>
</g>
<g>
</g>
<g>
</g>
<g>
</g>
<g>
</g>
<g>
</g>
<g>
</g>
<g>
</g>
<g>
</g>
<g>
</g>
<g>
</g>
<g>
</g>
<g>
</g>
<g>
</g>
</svg>
