<?xml version="1.0" encoding="iso-8859-1"?>
<!-- Generator: Adobe Illustrator 18.0.0, SVG Export Plug-In . SVG Version: 6.00 Build 0)  -->
<!DOCTYPE svg PUBLIC "-//W3C//DTD SVG 1.1//EN" "http://www.w3.org/Graphics/SVG/1.1/DTD/svg11.dtd">
<svg version="1.1" id="Capa_1" xmlns="http://www.w3.org/2000/svg" xmlns:xlink="http://www.w3.org/1999/xlink" x="0px" y="0px"
	 viewBox="0 0 309.703 309.703" style="enable-background:new 0 0 309.703 309.703;" xml:space="preserve">
<g>
	<g>
		<g>
			<path d="M253.218,100.913c1.805-1.496,2.826-3.75,2.717-6.111c-0.117-2.529-1.502-4.828-3.682-6.114
				c-32.273-19.027-62.49-23.464-76.189-24.479c0,0-0.035-21.31,0-22.514c2.734-0.392,8.023-0.392,10.615-0.392
				c2.789,0,5.348-1.547,6.643-4.016c1.295-2.47,1.113-5.453-0.471-7.747l-18.17-26.303C173.28,1.21,170.974,0,168.509,0h-9.162
				c-13.66,0-24.955,10.67-25.709,24.144c0,0-0.043,1.009-0.043,1.502l0.016,38.549c-13.707,1.009-43.914,5.427-76.158,24.424
				c-2.182,1.285-3.566,3.584-3.686,6.112c-0.109,2.386,0.93,4.661,2.77,6.156C34.06,112.641,4.017,138.9,4.189,195.294
				c0.102,33.47,16.131,63.346,45.139,84.122c27.267,19.531,64.744,30.287,105.523,30.287s78.256-10.756,105.523-30.287
				c29.006-20.776,45.037-50.651,45.141-84.122C305.683,138.949,275.69,112.683,253.218,100.913z M140.956,78.905
				c2.012,0.028,3.965-0.729,5.404-2.141c1.441-1.411,2.254-3.344,2.252-5.36l-0.018-44.601C148.653,26.427,148.358,15,159.347,15
				h5.229l8.289,12.001c-3.496,0.62-6.166,1.789-8.303,3.983c-3.936,4.044-3.695,9.091-3.629,15.485
				c0.025,2.353,0.137,24.954,0.137,24.954c0.002,2.009,0.818,3.934,2.25,5.342c1.434,1.407,3.338,2.159,5.389,2.149
				c0.311-0.014,29.488-0.275,63.57,16.101c-6.951,2.725-16.805,5.484-29.092,6.09c-2.5,0.124-4.773,1.486-6.063,3.633
				c-1.287,2.146-1.42,4.794-0.352,7.058c0.061,0.127,4.887,10.673-0.26,22.288c-9.545-9.328-26.912-25.008-39.438-28.887
				l-0.002,0.002c-1.395-0.435-2.932-0.468-4.432-0.003c-12.521,3.87-29.877,19.536-39.418,28.858
				c-5.064-11.42-0.502-21.814-0.285-22.297c1.066-2.263,0.936-4.908-0.352-7.054c-1.287-2.146-3.559-3.508-6.057-3.633
				c-12.186-0.61-22.066-3.397-29.059-6.14C111.503,78.613,140.64,78.896,140.956,78.905z M251.64,267.222
				c-24.742,17.722-59.115,27.482-96.789,27.482s-72.047-9.76-96.789-27.482c-25.344-18.153-38.785-43.041-38.873-71.973
				c-0.176-58.093,36.287-78.888,54.596-85.654c6.104,2.259,13.734,4.405,22.717,5.607c-1.518,8.923-1.201,22.616,9.725,35.62
				c1.375,1.638,3.385,2.61,5.523,2.673c0.074,0.002,0.146,0.003,0.219,0.003c2.061,0,4.033-0.848,5.453-2.351
				c9.297-9.844,26.918-26.062,37.432-30.767c10.508,4.709,28.154,20.944,37.469,30.799c1.418,1.502,3.391,2.35,5.449,2.35
				c0.074,0,0.148-0.002,0.221-0.004c2.139-0.063,4.148-1.035,5.523-2.673c10.914-12.995,11.225-26.686,9.701-35.609
				c9.016-1.201,16.67-3.354,22.781-5.619c18.336,6.8,54.691,27.619,54.518,85.625C290.427,224.181,276.983,249.068,251.64,267.222z
				"/>
		</g>
	</g>
</g>
<g>
</g>
<g>
</g>
<g>
</g>
<g>
</g>
<g>
</g>
<g>
</g>
<g>
</g>
<g>
</g>
<g>
</g>
<g>
</g>
<g>
</g>
<g>
</g>
<g>
</g>
<g>
</g>
<g>
</g>
</svg>
