<?xml version="1.0" encoding="iso-8859-1"?>
<!-- Generator: Adobe Illustrator 16.0.0, SVG Export Plug-In . SVG Version: 6.00 Build 0)  -->
<!DOCTYPE svg PUBLIC "-//W3C//DTD SVG 1.1//EN" "http://www.w3.org/Graphics/SVG/1.1/DTD/svg11.dtd">
<svg version="1.1" id="Capa_1" xmlns="http://www.w3.org/2000/svg" xmlns:xlink="http://www.w3.org/1999/xlink" x="0px" y="0px"
	 width="42.567px" height="42.567px" viewBox="0 0 42.567 42.567" style="enable-background:new 0 0 42.567 42.567;"
	 xml:space="preserve">
<g>
	<path d="M41.574,6.479c-0.688-0.625-3.062-1.938-3.062-1.938s0.312-0.5,0.75-1.25c0.438-0.75,0.438-1-0.812-1.562
		c-1.25-0.562-3.875-1.375-4.688-1.688c-0.813-0.312-1.75,1.25-2.062,1.5c-0.312,0.25,0-0.438,0.188-0.875
		c0.188-0.437-0.5-0.562-1.188-0.625c-0.688-0.062-1.625,0.062-3.25,0.188s-1.875,1-2.188,2c-0.313,1-2.438,6.812-2.688,7.125
		c-0.25,0.312-1.938,0-4.438,1.312c-2.5,1.312-5.562,4.375-8.938,9.812c-3.376,5.437-7.188,15.875-8,18.188
		c-0.812,2.313-0.587,2.949-0.062,3.188c1.375,0.625,3.75,1,5.75,0.438c2-0.562,8.312-6.438,12.688-9.438s7.688-3.562,11.188-6.812
		s1.812-8.812,1.812-9.125c0-0.312,1.375-1.5,2.188-2.562c0.812-1.062,5.625-5.125,6.312-5.688
		C41.762,8.104,42.263,7.104,41.574,6.479z M29.074,25.354c-2.625,1.938-7.812,3.75-10.062,5.312
		c-2.25,1.562-6.125,4.625-8.625,6.75s-4.812,3.75-6.688,3.25c-0.249-0.065-1.562,0-1.188-1.25s4.375-9.938,6.562-14.688
		s5.188-8.688,7.188-10.438s5.25-3.688,7.312-3.188c2.062,0.5,5.375,2.062,6.688,5.125C31.574,19.29,31.699,23.416,29.074,25.354z
		 M39.138,8.041c-0.562,0.5-1.875,2-3.625,3.312c-1.75,1.312-3.562,3.812-3.812,3.062s-2.438-2.688-3.5-3.5
		c-1.089-0.833-3.625-1.062-3.375-1.812s1.438-4.188,1.812-5.25c0.374-1.062,0.062-1.375,1-1.562c0.938-0.187,2-0.188,1.812,0.438
		c-0.188,0.626-1.625,4.125-1,4.562c0.625,0.438,1.25,0.75,1.938-0.5c0.688-1.25,2.562-3.75,2.812-4.062
		c0.25-0.312,0.438-0.875,1.188-0.562c0.75,0.313,2.875,0.938,2.438,1.5c-0.437,0.562-0.938,0.938-0.812,1.375
		c0.126,0.438-0.375,1.125-0.375,1.125s-3.125,3-3.75,3.438c-0.625,0.438-0.625,1.125-0.375,1.438c0.25,0.313,1-0.125,1.688-0.75
		c0.688-0.625,2.812-2.125,3.438-2.812c0.626-0.688,1.375-1.438,1.875-0.812S39.699,7.541,39.138,8.041z M8.679,28.312
		c0.042,0.459,0.667,0.375,1.542,1.042s1.583,1.833,2,1.583s-0.208-1.125-1.208-2.125S8.636,27.849,8.679,28.312z M15.054,21.896
		c-1.042-0.709-2.459-0.822-2.417-0.375c0.083,0.875,1.083,0.708,1.958,1.375c0.875,0.666,1.667,1.458,2.125,1.166
		C17.179,23.771,16.095,22.604,15.054,21.896z M19.262,17.188c-1-0.791-2.725-1.549-2.792-0.916
		c-0.083,0.791,1.292,1.083,2.167,1.541c0.875,0.459,1.875,2.417,2.458,2C21.679,19.396,20.262,17.979,19.262,17.188z M22.93,13.312
		c-0.417-0.333-1.04-0.669-1.375-0.333c-0.667,0.667,0.708,0.917,1.625,2c0.917,1.083,1.417,2.208,2.083,1.875
		C25.93,16.521,23.346,13.646,22.93,13.312z"/>
</g>
<g>
</g>
<g>
</g>
<g>
</g>
<g>
</g>
<g>
</g>
<g>
</g>
<g>
</g>
<g>
</g>
<g>
</g>
<g>
</g>
<g>
</g>
<g>
</g>
<g>
</g>
<g>
</g>
<g>
</g>
</svg>
