<?xml version="1.0" encoding="iso-8859-1"?>
<!-- Generator: Adobe Illustrator 18.1.1, SVG Export Plug-In . SVG Version: 6.00 Build 0)  -->
<svg version="1.1" id="Capa_1" xmlns="http://www.w3.org/2000/svg" xmlns:xlink="http://www.w3.org/1999/xlink" x="0px" y="0px"
	 viewBox="0 0 201.31 201.31" style="enable-background:new 0 0 201.31 201.31;" xml:space="preserve">
<g>
	<path style="fill:#010002;" d="M142.283,47.892V38.09c0-4.012-3.264-7.269-7.276-7.269h-20.625V0L90.386,12.97l-0.497,0.268v17.583
		H66.307c-4.012,0-7.279,3.257-7.279,7.269v9.802c-11.209,8.099-16.656,22.389-16.656,43.687c0,29.991,11.545,94.21,30.409,109.162
		l0.737,0.569h54.28l0.737-0.569c18.864-14.952,30.402-79.171,30.402-109.162C158.939,70.285,153.492,55.991,142.283,47.892z
		 M109.046,8.954v21.863H95.235V16.427L109.046,8.954z M114.382,52.076h20.117c1.127,0,2.258-0.268,3.282-0.787l0.358,0.233
		c10.407,6.861,15.464,19.966,15.464,40.054c0,6.628-0.526,14.638-1.532,23.173c-3.246,2.029-13.746,8.013-24.834,8.013
		c-4.724,0-9.047-1.088-12.855-3.225C114.382,119.537,114.382,52.076,114.382,52.076z M75.408,195.974
		c-12.258-10.819-21.949-48.068-25.807-78.341c4.499-2.108,18.671-8.21,32.367-8.21c4.062,0,7.777,0.54,11.066,1.61
		c4.262,1.374,7.895,3.675,10.801,6.836c6.166,6.717,13.95,10.121,23.144,10.121c9.835-0.007,19.129-3.99,24.254-6.667
		c-4.083,28.989-13.664,64.348-25.317,74.648H75.408V195.974z M63.534,51.285c1.031,0.523,2.158,0.795,3.285,0.795h23.069v52.688
		c-2.534-0.462-5.243-0.684-8.052-0.684c-13.582,0-27.124,5.365-32.897,7.967c-0.816-7.612-1.224-14.491-1.224-20.467
		c0-20.088,5.057-33.194,15.464-40.062L63.534,51.285z M95.231,106.138V52.076h13.811v63.478c-0.444-0.408-0.863-0.841-1.281-1.292
		C104.375,110.572,100.156,107.838,95.231,106.138z M136.503,44.736c0,1.102-0.898,2.008-2.004,2.008h-67.68
		c-1.106,0-2.008-0.902-2.008-2.008v-5.919c0-1.109,0.902-2.008,2.008-2.008h67.68c1.106,0,2.004,0.898,2.004,2.008
		C136.503,38.816,136.503,44.736,136.503,44.736z"/>
</g>
<g>
</g>
<g>
</g>
<g>
</g>
<g>
</g>
<g>
</g>
<g>
</g>
<g>
</g>
<g>
</g>
<g>
</g>
<g>
</g>
<g>
</g>
<g>
</g>
<g>
</g>
<g>
</g>
<g>
</g>
</svg>
